<svg width="24" height="24" viewBox="0 0 24 24" fill="none" xmlns="http://www.w3.org/2000/svg">
<path d="M10.1765 12.8438C10.6077 12.45 10.9077 12.15 11.0765 11.9391C11.3249 11.625 11.5077 11.3203 11.6249 11.0297C11.7421 10.7438 11.7983 10.4391 11.7983 10.1203C11.7983 9.55785 11.5968 9.0891 11.1937 8.7141C10.7905 8.33441 10.2327 8.14691 9.52959 8.14691C8.88272 8.14691 8.34834 8.31097 7.91709 8.63441C7.48584 8.96254 7.23272 9.49691 7.15303 10.2469L8.52178 10.3828C8.5499 9.98441 8.64365 9.70316 8.8124 9.52972C8.98115 9.36097 9.21084 9.27191 9.49678 9.27191C9.7874 9.27191 10.0124 9.3516 10.1765 9.51566C10.3405 9.67972 10.4249 9.9141 10.4249 10.2141C10.4249 10.4907 10.3312 10.7672 10.1437 11.0485C10.003 11.25 9.62334 11.6391 9.00459 12.211C8.23584 12.9188 7.72021 13.486 7.4624 13.9125C7.1999 14.3391 7.04521 14.7938 6.99365 15.2672H11.803V14.0063H9.0749C9.14522 13.8844 9.23897 13.7578 9.35615 13.6313C9.46865 13.4953 9.74522 13.2375 10.1765 12.8438Z" fill="#DDDDDD"/>
<path d="M16.7482 15.2672V13.8422H17.6389V12.6469H16.7482V8.14691H15.5951L12.4873 12.6516V13.8422H15.417V15.2672H16.7482ZM13.7717 12.6422L15.417 10.2188V12.6422H13.7717Z" fill="#DDDDDD"/>
<path d="M22.5046 2.96252C21.9843 2.92033 21.5202 3.30002 21.4734 3.82033L21.3515 5.20783C19.2281 2.34846 15.8015 0.496894 11.939 0.515644C5.53118 0.548457 0.393681 5.67658 0.407744 12.0235C0.417119 18.3563 5.60618 23.4844 11.9999 23.4844C14.1234 23.4844 16.1109 22.9172 17.8218 21.9328C18.3187 21.6469 18.4546 20.9953 18.1124 20.536C17.8171 20.1422 17.2734 20.0344 16.8468 20.2828C15.4218 21.1031 13.7671 21.5719 11.9999 21.5719C6.66556 21.5719 2.34368 17.2922 2.33899 12.0094C2.33431 6.70783 6.64681 2.42814 11.9999 2.42814C15.2718 2.42814 18.1593 4.03596 19.9077 6.50158L18.3984 6.37033C17.8734 6.32814 17.414 6.70783 17.3671 7.22814C17.3202 7.74846 17.7093 8.20314 18.2296 8.25002L22.0031 8.57814C22.0312 8.57814 22.0593 8.58283 22.0874 8.58283C22.5749 8.58283 22.9921 8.21252 23.0343 7.72502L23.3671 3.98908C23.4187 3.46877 23.0296 3.00939 22.5046 2.96252Z" fill="#DDDDDD"/>
</svg>
