<svg width="24" height="24" viewBox="0 0 24 24" fill="none" xmlns="http://www.w3.org/2000/svg">
<path d="M18.4747 13.0449L17.9272 12.4973C18.2033 12.2213 18.2033 11.7721 17.9272 11.496C17.6597 11.2285 17.1935 11.2285 16.9259 11.496L16.3783 10.9485L16.7655 10.5613C17.0416 10.2852 17.0416 9.83603 16.7655 9.55994C16.498 9.29241 16.0318 9.29241 15.7642 9.55994L15.377 9.94712L14.8294 9.39959L15.6039 8.62515C15.88 8.34906 15.88 7.89989 15.6039 7.62381C15.3278 7.34772 14.8786 7.34772 14.6025 7.62381L13.8281 8.39825L13.2806 7.85071L13.6677 7.46353C13.8017 7.32956 13.8749 7.15185 13.8749 6.96286C13.8749 6.77387 13.8017 6.59615 13.6677 6.46219C13.3917 6.1861 12.9425 6.1861 12.6664 6.46219L12.2792 6.84937L11.7317 6.30183L12.1189 5.91465C12.6966 5.33696 13.6375 5.33696 14.2152 5.91465C14.4425 6.14195 14.5799 6.425 14.6287 6.72004C15.1452 6.54697 15.7399 6.6651 16.1512 7.07627C16.5624 7.48744 16.6809 8.08185 16.5074 8.59875C16.8025 8.64754 17.0855 8.78503 17.3128 9.01225C17.724 9.42342 17.8425 10.0178 17.669 10.5347C17.9641 10.5835 18.2471 10.721 18.4744 10.9482C19.0528 11.5262 19.0528 12.4672 18.4747 13.0449Z" fill="#DDDDDD"/>
<path d="M12.5064 17.5309L11.3975 18.6395L8.69672 19.7972L4.7771 23.3246L5.2952 23.9L6.61166 22.7152C6.7689 22.7945 6.92526 22.8763 7.0837 22.9471L7.40042 22.2408C7.34387 22.2152 7.28773 22.1843 7.23118 22.1576L9.11917 20.4582L11.8393 19.2927L13.0535 18.0781L12.5064 17.5309Z" fill="#DDDDDD"/>
<path d="M9.97116 4.09235L4.10156 9.96194L5.45097 11.3113L6.77751 10.0286L6.78215 10.0239C7.10046 9.70561 7.61849 9.70561 7.93681 10.0239C8.21097 10.2981 8.25392 10.7313 8.03902 11.0539L6.90068 12.7607L14.0411 19.901L19.9107 14.0314L9.97116 4.09235ZM13.4149 13.4057C12.637 14.1836 11.3755 14.1836 10.5972 13.4057C9.81936 12.6278 9.81936 11.3663 10.5972 10.588C11.3751 9.81014 12.6366 9.81014 13.4149 10.588C14.1928 11.3659 14.1928 12.6274 13.4149 13.4057Z" fill="#DDDDDD"/>
<path d="M12.0063 14.3764C11.3706 14.3764 10.7727 14.1287 10.3236 13.6791C9.874 13.2299 9.62622 12.6321 9.62622 11.9967C9.62622 11.3606 9.874 10.7631 10.3236 10.314C10.7727 9.86441 11.3702 9.61664 12.0063 9.61664C12.6421 9.61664 13.2396 9.86441 13.6887 10.314C14.1382 10.7631 14.386 11.3606 14.386 11.9967C14.386 12.6325 14.1382 13.2299 13.6887 13.6791C13.2395 14.129 12.6421 14.3764 12.0063 14.3764ZM12.0063 10.3914C11.5777 10.3914 11.1746 10.5586 10.871 10.8618C10.5674 11.165 10.4006 11.5681 10.4006 11.9971C10.4006 12.4253 10.5678 12.8284 10.871 13.132C11.1742 13.4352 11.5773 13.6025 12.0063 13.6025C12.4345 13.6025 12.8376 13.4352 13.1412 13.132C13.4448 12.8288 13.6117 12.4257 13.6117 11.9971C13.6117 11.5685 13.4444 11.1654 13.1412 10.8618C12.838 10.5582 12.4345 10.3914 12.0063 10.3914Z" fill="#DDDDDD"/>
<path d="M6.26285 13.7178L6.90716 14.1472L8.68326 11.4833C9.10219 10.8545 9.01861 10.0104 8.48427 9.47604C7.86395 8.85572 6.85453 8.85572 6.23421 9.47604L3.90482 11.8054L3.13038 15.6775L1.90758 16.901C1.87463 16.8333 1.83752 16.7674 1.80617 16.6993L1.10299 17.0238C1.17385 17.1767 1.25359 17.3266 1.33141 17.4772L0.115967 18.6926L0.663504 19.2401L3.84396 16.0597L4.6184 12.1877L6.78207 10.0239C7.10039 9.70558 7.61841 9.70558 7.93673 10.0239C8.2109 10.2981 8.25385 10.7313 8.03895 11.0539L6.26285 13.7178Z" fill="#DDDDDD"/>
<path d="M1.58448 7.80799L0.866182 7.5191C0.664075 8.02209 0.494439 8.54364 0.362793 9.0683L1.11356 9.25649C1.23713 8.7655 1.39548 8.27803 1.58448 7.80799Z" fill="#DDDDDD"/>
<path d="M3.09097 5.16831L2.47689 4.69635C2.14697 5.12536 1.84377 5.58188 1.57544 6.05272L2.24758 6.43606C2.49896 5.99657 2.78273 5.56948 3.09097 5.16831Z" fill="#DDDDDD"/>
<path d="M0.155518 13.9165C0.241095 14.4504 0.364583 14.9844 0.522942 15.5029L1.26331 15.2768C1.11543 14.792 1.00002 14.2933 0.919879 13.7942L0.155518 13.9165Z" fill="#DDDDDD"/>
<path d="M0.777044 11.9967C0.777044 11.582 0.800238 11.1642 0.845186 10.7546L0.0754666 10.6698C0.0270792 11.1074 0.00268555 11.5534 0.00268555 11.9983C0.00308544 12.0981 0.00420515 12.1969 0.00652455 12.2956L0.780963 12.2774C0.778644 12.1837 0.777444 12.0896 0.777044 11.9967Z" fill="#DDDDDD"/>
<path d="M21.9907 5.33333C21.6898 4.88337 21.3552 4.45012 20.9975 4.0451L20.4175 4.55777C20.7528 4.93687 21.0656 5.34261 21.3472 5.76354L21.9907 5.33333Z" fill="#DDDDDD"/>
<path d="M5.24836 3.02755L4.78176 2.40955C4.35043 2.73522 3.93646 3.09409 3.552 3.47511L4.09722 4.02497C4.45729 3.66794 4.84447 3.33267 5.24836 3.02755Z" fill="#DDDDDD"/>
<path d="M23.2236 11.4825L23.9973 11.4469C23.9729 10.9052 23.9109 10.3607 23.8141 9.83032L23.0525 9.96853C23.1431 10.4657 23.2004 10.9745 23.2236 11.4825Z" fill="#DDDDDD"/>
<path d="M23.4129 8.25204C23.244 7.73785 23.0384 7.23022 22.8015 6.74347L22.105 7.08226C22.3268 7.53798 22.5193 8.01234 22.6772 8.49325L23.4129 8.25204Z" fill="#DDDDDD"/>
<path d="M7.89735 1.54337L7.6139 0.822754C7.11091 1.02062 6.61648 1.25528 6.14404 1.52009L6.52314 2.19536C6.96415 1.94766 7.42691 1.72812 7.89735 1.54337Z" fill="#DDDDDD"/>
<path d="M12.3701 0.773639C12.8773 0.789875 13.3869 0.840981 13.8852 0.925039L14.0138 0.161078C13.4814 0.0716614 12.9366 0.0170356 12.3949 0L12.3701 0.773639Z" fill="#DDDDDD"/>
<path d="M17.6926 21.6818L18.086 22.349C18.5514 22.0748 19.0033 21.7658 19.4289 21.4305L18.9496 20.8226C18.551 21.1358 18.1286 21.4251 17.6926 21.6818Z" fill="#DDDDDD"/>
<path d="M18.1152 2.57374C18.54 2.84943 18.9497 3.15727 19.3334 3.48831L19.8395 2.90134C19.4287 2.54783 18.9912 2.21872 18.5374 1.92407L18.1152 2.57374Z" fill="#DDDDDD"/>
<path d="M15.366 1.27893C15.8496 1.43033 16.3266 1.6166 16.785 1.83223L17.115 1.13177C16.6252 0.900627 16.1144 0.701959 15.5975 0.540161L15.366 1.27893Z" fill="#DDDDDD"/>
<path d="M21.8784 17.351L22.5591 17.7207C22.8178 17.2448 23.0462 16.7465 23.2375 16.2404L22.5131 15.9667C22.3341 16.4402 22.1208 16.906 21.8784 17.351Z" fill="#DDDDDD"/>
<path d="M22.9524 14.5085L23.7071 14.6808C23.8278 14.1538 23.9131 13.6129 23.9611 13.0731L23.1898 13.0042C23.1452 13.5095 23.0651 14.0156 22.9524 14.5085Z" fill="#DDDDDD"/>
<path d="M20.0791 19.8011L20.6359 20.3397C21.0119 19.9513 21.365 19.5332 21.686 19.0956L21.0623 18.6371C20.7609 19.0465 20.4306 19.4379 20.0791 19.8011Z" fill="#DDDDDD"/>
<path d="M14.8909 22.8515L15.0899 23.6003C15.613 23.4617 16.131 23.2855 16.6305 23.0765L16.3319 22.3617C15.8651 22.5568 15.3803 22.7218 14.8909 22.8515Z" fill="#DDDDDD"/>
<path d="M8.65356 23.5252C9.17439 23.6758 9.70945 23.792 10.2442 23.8714L10.3569 23.1051C9.85661 23.0315 9.35594 22.9223 8.86887 22.781L8.65356 23.5252Z" fill="#DDDDDD"/>
<path d="M9.16528 0.331822L9.34764 1.08419C9.83863 0.965337 10.3431 0.878559 10.8484 0.826733L10.7691 0.0562134C10.2289 0.111879 9.68955 0.204815 9.16528 0.331822Z" fill="#DDDDDD"/>
<path d="M12.0058 23.2256L11.8741 23.2248L11.8672 23.9992L12.0058 24C12.5025 24 13.0024 23.9695 13.4915 23.909L13.3962 23.1408C12.9389 23.197 12.4712 23.2256 12.0058 23.2256Z" fill="#DDDDDD"/>
</svg>
