<svg width="30" height="30" viewBox="0 0 30 30" fill="none" xmlns="http://www.w3.org/2000/svg">
<path d="M2.46415 7.33866H27.5319C28.014 7.33866 28.4961 6.91684 28.4961 6.37451V3.96415C28.4961 3.48207 28.014 3 27.5319 3H2.46415C1.92181 3 1.5 3.48207 1.5 3.96415V6.37451C1.5 6.91684 1.92181 7.33866 2.46415 7.33866ZM2.46415 16.9801H27.5319C28.014 16.9801 28.4961 16.5583 28.4961 16.016V13.6056C28.4961 13.1235 28.014 12.6415 27.5319 12.6415H2.46415C1.92181 12.6415 1.5 13.1235 1.5 13.6056V16.016C1.5 16.5583 1.92181 16.9801 2.46415 16.9801ZM2.46415 26.6216H27.5319C28.014 26.6216 28.4961 26.1998 28.4961 25.6574V23.2471C28.4961 22.765 28.014 22.2829 27.5319 22.2829H2.46415C1.92181 22.2829 1.5 22.765 1.5 23.2471V25.6574C1.5 26.1998 1.92181 26.6216 2.46415 26.6216Z" fill="#333333"/>
</svg>
