<svg width="21" height="20" viewBox="0 0 21 20" fill="none" xmlns="http://www.w3.org/2000/svg">
<path d="M10.624 4.80998C7.87428 4.80998 5.6831 7.04412 5.6831 9.75087C5.6831 12.5006 7.87428 14.6918 10.624 14.6918C13.3307 14.6918 15.5649 12.5006 15.5649 9.75087C15.5649 7.04412 13.3307 4.80998 10.624 4.80998ZM10.624 12.9732C8.86245 12.9732 7.40167 11.5554 7.40167 9.75087C7.40167 7.98933 8.81949 6.57152 10.624 6.57152C12.3855 6.57152 13.8033 7.98933 13.8033 9.75087C13.8033 11.5554 12.3855 12.9732 10.624 12.9732ZM16.8968 4.63813C16.8968 3.99366 16.3812 3.47809 15.7367 3.47809C15.0923 3.47809 14.5767 3.99366 14.5767 4.63813C14.5767 5.28259 15.0923 5.79816 15.7367 5.79816C16.3812 5.79816 16.8968 5.28259 16.8968 4.63813ZM20.162 5.79816C20.0761 4.25145 19.7324 2.87659 18.6153 1.75952C17.4983 0.642452 16.1234 0.298738 14.5767 0.21281C12.987 0.126881 8.21799 0.126881 6.62831 0.21281C5.0816 0.298738 3.74971 0.642452 2.58968 1.75952C1.47261 2.87659 1.12889 4.25145 1.04296 5.79816C0.957036 7.38784 0.957036 12.1569 1.04296 13.7465C1.12889 15.2933 1.47261 16.6251 2.58968 17.7852C3.74971 18.9022 5.0816 19.246 6.62831 19.3319C8.21799 19.4178 12.987 19.4178 14.5767 19.3319C16.1234 19.246 17.4983 18.9022 18.6153 17.7852C19.7324 16.6251 20.0761 15.2933 20.162 13.7465C20.248 12.1569 20.248 7.38784 20.162 5.79816ZM18.0998 15.4221C17.799 16.2814 17.1116 16.9259 16.2953 17.2696C15.0063 17.7852 11.9988 17.6563 10.624 17.6563C9.20617 17.6563 6.19867 17.7852 4.95271 17.2696C4.09342 16.9259 3.44896 16.2814 3.10525 15.4221C2.58968 14.1762 2.71857 11.1687 2.71857 9.75087C2.71857 8.37601 2.58968 5.36852 3.10525 4.07959C3.44896 3.26327 4.09342 2.61881 4.95271 2.27509C6.19867 1.75952 9.20617 1.88841 10.624 1.88841C11.9988 1.88841 15.0063 1.75952 16.2953 2.27509C17.1116 2.57584 17.756 3.26327 18.0998 4.07959C18.6153 5.36852 18.4864 8.37601 18.4864 9.75087C18.4864 11.1687 18.6153 14.1762 18.0998 15.4221Z" fill="white"/>
</svg>
