<svg width="24" height="24" viewBox="0 0 24 24" fill="none" xmlns="http://www.w3.org/2000/svg">
<path d="M23.3953 14.0964V13.8396L21.2336 6.73962H16.4501V5.04138H4.95129V9.43557H2.50283L1.46732 10.8164H4.95129V11.8146V11.8519H1.03551L0 13.2328H4.95077V14.0964H4.40091V16.4263H4.95077V16.7722H5.32459C5.53376 18.0111 6.61121 18.9586 7.90922 18.9586C9.20723 18.9586 10.2842 18.0111 10.4933 16.7722H16.3864C16.5946 18.0111 17.672 18.9586 18.97 18.9586C20.2675 18.9586 21.3455 18.0111 21.5541 16.7722H23.3947V16.4263H24V14.0964H23.3953ZM7.90922 17.7243C7.14346 17.7243 6.51957 17.1004 6.51957 16.3336C6.51957 15.5679 7.14294 14.9445 7.90922 14.9445C8.67498 14.9445 9.29836 15.5673 9.29836 16.3336C9.29836 17.1004 8.67498 17.7243 7.90922 17.7243ZM18.9705 17.7243C18.2048 17.7243 17.5804 17.1004 17.5804 16.3336C17.5804 15.5679 18.2043 14.9445 18.9705 14.9445C19.7368 14.9445 20.3597 15.5673 20.3597 16.3336C20.3591 17.1004 19.7363 17.7243 18.9705 17.7243ZM17.6844 11.1188V7.97394H20.3188L21.2766 11.1188H17.6844Z" fill="#DDDDDD"/>
</svg>
