<svg width="25" height="17" viewBox="0 0 25 17" fill="none" xmlns="http://www.w3.org/2000/svg">
<path d="M23.5874 3.12255C23.3296 2.09141 22.5133 1.27509 21.5251 1.01731C19.6776 0.501737 12.3737 0.501737 12.3737 0.501737C12.3737 0.501737 5.02681 0.501737 3.17935 1.01731C2.19118 1.27509 1.37486 2.09141 1.11707 3.12255C0.601499 4.92705 0.601499 8.79383 0.601499 8.79383C0.601499 8.79383 0.601499 12.6176 1.11707 14.4651C1.37486 15.4963 2.19118 16.2696 3.17935 16.5274C5.02681 17 12.3737 17 12.3737 17C12.3737 17 19.6776 17 21.5251 16.5274C22.5133 16.2696 23.3296 15.4963 23.5874 14.4651C24.1029 12.6176 24.1029 8.79383 24.1029 8.79383C24.1029 8.79383 24.1029 4.92705 23.5874 3.12255ZM9.9677 12.2739V5.31373L16.0686 8.79383L9.9677 12.2739Z" fill="white"/>
</svg>
